<?xml version="1.0" encoding="UTF-8" standalone="no"?>
<!DOCTYPE svg PUBLIC "-//W3C//DTD SVG 1.1//EN"
 "http://www.w3.org/Graphics/SVG/1.1/DTD/svg11.dtd">
<!-- Generated by graphviz version 2.43.0 (0)
 -->
<!-- Title: controllers_diagram Pages: 1 -->
<svg width="382pt" height="222pt"
 viewBox="0.00 0.00 382.00 222.00" xmlns="http://www.w3.org/2000/svg" xmlns:xlink="http://www.w3.org/1999/xlink">
<g id="graph0" class="graph" transform="scale(1 1) rotate(0) translate(4 218)">
<title>controllers_diagram</title>
<polygon fill="transparent" stroke="transparent" points="-4,4 -4,-218 378,-218 378,4 -4,4"/>
<!-- _diagram_info -->
<g id="node1" class="node">
<title>_diagram_info</title>
<text text-anchor="start" x="8" y="-63.6" font-family="Times,serif" font-size="13.00">Controllers diagram</text>
<text text-anchor="start" x="8" y="-49.6" font-family="Times,serif" font-size="13.00">Date: Aug 01 2020 &#45; 10:36</text>
<text text-anchor="start" x="8" y="-35.6" font-family="Times,serif" font-size="13.00">Migration version: 20200731090008</text>
<text text-anchor="start" x="8" y="-21.6" font-family="Times,serif" font-size="13.00">Generated by RailRoady 1.5.3</text>
<text text-anchor="start" x="8" y="-7.6" font-family="Times,serif" font-size="13.00">http://railroady.prestonlee.com</text>
</g>
<!-- ApplicationController -->
<g id="node2" class="node">
<title>ApplicationController</title>
<path fill="none" stroke="black" d="M216,-119.5C216,-119.5 362,-119.5 362,-119.5 368,-119.5 374,-125.5 374,-131.5 374,-131.5 374,-201.5 374,-201.5 374,-207.5 368,-213.5 362,-213.5 362,-213.5 216,-213.5 216,-213.5 210,-213.5 204,-207.5 204,-201.5 204,-201.5 204,-131.5 204,-131.5 204,-125.5 210,-119.5 216,-119.5"/>
<text text-anchor="middle" x="289" y="-198.3" font-family="Times,serif" font-size="14.00">ApplicationController</text>
<polyline fill="none" stroke="black" points="204,-190.5 374,-190.5 "/>
<polyline fill="none" stroke="black" points="204,-166.5 374,-166.5 "/>
<polyline fill="none" stroke="black" points="204,-142.5 374,-142.5 "/>
<text text-anchor="start" x="212" y="-127.3" font-family="Times,serif" font-size="14.00">_layout</text>
</g>
</g>
</svg>
