<?xml version="1.0" encoding="UTF-8" standalone="no"?>
<!DOCTYPE svg PUBLIC "-//W3C//DTD SVG 1.1//EN"
 "http://www.w3.org/Graphics/SVG/1.1/DTD/svg11.dtd">
<!-- Generated by graphviz version 2.43.0 (0)
 -->
<!-- Title: models_diagram Pages: 1 -->
<svg width="850pt" height="765pt"
 viewBox="0.00 0.00 849.50 765.00" xmlns="http://www.w3.org/2000/svg" xmlns:xlink="http://www.w3.org/1999/xlink">
<g id="graph0" class="graph" transform="scale(1 1) rotate(0) translate(4 761)">
<title>models_diagram</title>
<polygon fill="transparent" stroke="transparent" points="-4,4 -4,-761 845.5,-761 845.5,4 -4,4"/>
<!-- _diagram_info -->
<g id="node1" class="node">
<title>_diagram_info</title>
<text text-anchor="start" x="8" y="-735.6" font-family="Times,serif" font-size="13.00">Models diagram</text>
<text text-anchor="start" x="8" y="-721.6" font-family="Times,serif" font-size="13.00">Date: Aug 01 2020 &#45; 10:36</text>
<text text-anchor="start" x="8" y="-707.6" font-family="Times,serif" font-size="13.00">Migration version: 20200731090008</text>
<text text-anchor="start" x="8" y="-693.6" font-family="Times,serif" font-size="13.00">Generated by RailRoady 1.5.3</text>
<text text-anchor="start" x="8" y="-679.6" font-family="Times,serif" font-size="13.00">http://railroady.prestonlee.com</text>
</g>
<!-- ApplicationRecord -->
<g id="node2" class="node">
<title>ApplicationRecord</title>
<ellipse fill="none" stroke="black" cx="372.5" cy="-711" rx="95.58" ry="18"/>
<text text-anchor="middle" x="372.5" y="-707.3" font-family="Times,serif" font-size="14.00">ApplicationRecord</text>
</g>
<!-- City -->
<g id="node3" class="node">
<title>City</title>
<path fill="none" stroke="black" d="M498,-673C498,-673 615,-673 615,-673 621,-673 627,-679 627,-685 627,-685 627,-737 627,-737 627,-743 621,-749 615,-749 615,-749 498,-749 498,-749 492,-749 486,-743 486,-737 486,-737 486,-685 486,-685 486,-679 492,-673 498,-673"/>
<text text-anchor="middle" x="556.5" y="-733.8" font-family="Times,serif" font-size="14.00">City</text>
<polyline fill="none" stroke="black" points="486,-726 627,-726 "/>
<text text-anchor="start" x="494" y="-710.8" font-family="Times,serif" font-size="14.00">id :integer</text>
<text text-anchor="start" x="494" y="-695.8" font-family="Times,serif" font-size="14.00">name :varchar</text>
<text text-anchor="start" x="494" y="-680.8" font-family="Times,serif" font-size="14.00">zip_code :varchar</text>
</g>
<!-- User -->
<g id="node10" class="node">
<title>User</title>
<path fill="none" stroke="black" d="M484,-461.5C484,-461.5 629,-461.5 629,-461.5 635,-461.5 641,-467.5 641,-473.5 641,-473.5 641,-615.5 641,-615.5 641,-621.5 635,-627.5 629,-627.5 629,-627.5 484,-627.5 484,-627.5 478,-627.5 472,-621.5 472,-615.5 472,-615.5 472,-473.5 472,-473.5 472,-467.5 478,-461.5 484,-461.5"/>
<text text-anchor="middle" x="556.5" y="-612.3" font-family="Times,serif" font-size="14.00">User</text>
<polyline fill="none" stroke="black" points="472,-604.5 641,-604.5 "/>
<text text-anchor="start" x="480" y="-589.3" font-family="Times,serif" font-size="14.00">id :integer</text>
<text text-anchor="start" x="480" y="-574.3" font-family="Times,serif" font-size="14.00">city_id :bigint</text>
<text text-anchor="start" x="480" y="-559.3" font-family="Times,serif" font-size="14.00">first_name :varchar</text>
<text text-anchor="start" x="480" y="-544.3" font-family="Times,serif" font-size="14.00">last_name :varchar</text>
<text text-anchor="start" x="480" y="-529.3" font-family="Times,serif" font-size="14.00">description :text</text>
<text text-anchor="start" x="480" y="-514.3" font-family="Times,serif" font-size="14.00">email :varchar</text>
<text text-anchor="start" x="480" y="-499.3" font-family="Times,serif" font-size="14.00">age :integer</text>
<text text-anchor="start" x="480" y="-484.3" font-family="Times,serif" font-size="14.00">created_at :datetime</text>
<text text-anchor="start" x="480" y="-469.3" font-family="Times,serif" font-size="14.00">updated_at :datetime</text>
</g>
<!-- City&#45;&gt;User -->
<g id="edge1" class="edge">
<title>City&#45;&gt;User</title>
<path fill="none" stroke="#b5e444" d="M556.5,-664.54C556.5,-656.1 556.5,-647.01 556.5,-637.75"/>
<ellipse fill="none" stroke="#b5e444" cx="556.5" cy="-668.67" rx="4" ry="4"/>
<polygon fill="#b5e444" stroke="#b5e444" points="556.5,-637.66 561,-627.66 556.5,-632.66 556.5,-627.66 556.5,-627.66 556.5,-627.66 556.5,-632.66 552,-627.66 556.5,-637.66 556.5,-637.66"/>
</g>
<!-- Comment -->
<g id="node4" class="node">
<title>Comment</title>
<path fill="none" stroke="black" d="M206,-129.5C206,-129.5 351,-129.5 351,-129.5 357,-129.5 363,-135.5 363,-141.5 363,-141.5 363,-238.5 363,-238.5 363,-244.5 357,-250.5 351,-250.5 351,-250.5 206,-250.5 206,-250.5 200,-250.5 194,-244.5 194,-238.5 194,-238.5 194,-141.5 194,-141.5 194,-135.5 200,-129.5 206,-129.5"/>
<text text-anchor="middle" x="278.5" y="-235.3" font-family="Times,serif" font-size="14.00">Comment</text>
<polyline fill="none" stroke="black" points="194,-227.5 363,-227.5 "/>
<text text-anchor="start" x="202" y="-212.3" font-family="Times,serif" font-size="14.00">id :integer</text>
<text text-anchor="start" x="202" y="-197.3" font-family="Times,serif" font-size="14.00">user_id :bigint</text>
<text text-anchor="start" x="202" y="-182.3" font-family="Times,serif" font-size="14.00">gossip_id :bigint</text>
<text text-anchor="start" x="202" y="-167.3" font-family="Times,serif" font-size="14.00">content :text</text>
<text text-anchor="start" x="202" y="-152.3" font-family="Times,serif" font-size="14.00">created_at :datetime</text>
<text text-anchor="start" x="202" y="-137.3" font-family="Times,serif" font-size="14.00">updated_at :datetime</text>
</g>
<!-- Like -->
<g id="node7" class="node">
<title>Like</title>
<path fill="none" stroke="black" d="M325.5,-0.5C325.5,-0.5 455.5,-0.5 455.5,-0.5 461.5,-0.5 467.5,-6.5 467.5,-12.5 467.5,-12.5 467.5,-79.5 467.5,-79.5 467.5,-85.5 461.5,-91.5 455.5,-91.5 455.5,-91.5 325.5,-91.5 325.5,-91.5 319.5,-91.5 313.5,-85.5 313.5,-79.5 313.5,-79.5 313.5,-12.5 313.5,-12.5 313.5,-6.5 319.5,-0.5 325.5,-0.5"/>
<text text-anchor="middle" x="390.5" y="-76.3" font-family="Times,serif" font-size="14.00">Like</text>
<polyline fill="none" stroke="black" points="313.5,-68.5 467.5,-68.5 "/>
<text text-anchor="start" x="321.5" y="-53.3" font-family="Times,serif" font-size="14.00">id :integer</text>
<text text-anchor="start" x="321.5" y="-38.3" font-family="Times,serif" font-size="14.00">user_id :bigint</text>
<text text-anchor="start" x="321.5" y="-23.3" font-family="Times,serif" font-size="14.00">gossip_id :bigint</text>
<text text-anchor="start" x="321.5" y="-8.3" font-family="Times,serif" font-size="14.00">comment_id :bigint</text>
</g>
<!-- Comment&#45;&gt;Like -->
<g id="edge2" class="edge">
<title>Comment&#45;&gt;Like</title>
<path fill="none" stroke="#59c505" d="M331.99,-121.18C337.68,-113.97 343.4,-106.72 348.92,-99.72"/>
<polygon fill="#59c505" stroke="#59c505" points="331.87,-121.34 322.14,-126.4 328.77,-125.26 325.67,-129.19 325.67,-129.19 325.67,-129.19 328.77,-125.26 329.21,-131.98 331.87,-121.34 331.87,-121.34"/>
<polygon fill="#59c505" stroke="#59c505" points="349.1,-99.49 358.83,-94.42 352.2,-95.56 355.29,-91.64 355.29,-91.64 355.29,-91.64 352.2,-95.56 351.76,-88.85 349.1,-99.49 349.1,-99.49"/>
</g>
<!-- Gossip -->
<g id="node5" class="node">
<title>Gossip</title>
<path fill="none" stroke="black" d="M359,-288.5C359,-288.5 504,-288.5 504,-288.5 510,-288.5 516,-294.5 516,-300.5 516,-300.5 516,-397.5 516,-397.5 516,-403.5 510,-409.5 504,-409.5 504,-409.5 359,-409.5 359,-409.5 353,-409.5 347,-403.5 347,-397.5 347,-397.5 347,-300.5 347,-300.5 347,-294.5 353,-288.5 359,-288.5"/>
<text text-anchor="middle" x="431.5" y="-394.3" font-family="Times,serif" font-size="14.00">Gossip</text>
<polyline fill="none" stroke="black" points="347,-386.5 516,-386.5 "/>
<text text-anchor="start" x="355" y="-371.3" font-family="Times,serif" font-size="14.00">id :integer</text>
<text text-anchor="start" x="355" y="-356.3" font-family="Times,serif" font-size="14.00">user_id :bigint</text>
<text text-anchor="start" x="355" y="-341.3" font-family="Times,serif" font-size="14.00">title :varchar</text>
<text text-anchor="start" x="355" y="-326.3" font-family="Times,serif" font-size="14.00">content :text</text>
<text text-anchor="start" x="355" y="-311.3" font-family="Times,serif" font-size="14.00">created_at :datetime</text>
<text text-anchor="start" x="355" y="-296.3" font-family="Times,serif" font-size="14.00">updated_at :datetime</text>
</g>
<!-- Gossip&#45;&gt;Comment -->
<g id="edge5" class="edge">
<title>Gossip&#45;&gt;Comment</title>
<path fill="none" stroke="#004366" d="M367.56,-282.39C359.7,-274.33 351.67,-266.08 343.79,-258"/>
<ellipse fill="none" stroke="#004366" cx="370.43" cy="-285.33" rx="4" ry="4"/>
<polygon fill="#004366" stroke="#004366" points="343.6,-257.8 339.84,-247.5 340.11,-254.22 336.62,-250.64 336.62,-250.64 336.62,-250.64 340.11,-254.22 333.39,-253.78 343.6,-257.8 343.6,-257.8"/>
</g>
<!-- Gossip&#45;&gt;Like -->
<g id="edge3" class="edge">
<title>Gossip&#45;&gt;Like</title>
<path fill="none" stroke="#eac193" d="M415.03,-280.6C412.96,-270.71 411.03,-260.62 409.5,-251 401.51,-200.81 396.52,-143.09 393.67,-101.89"/>
<ellipse fill="none" stroke="#eac193" cx="415.88" cy="-284.56" rx="4" ry="4"/>
<polygon fill="#eac193" stroke="#eac193" points="393.66,-101.76 397.48,-91.48 393.32,-96.77 392.99,-91.78 392.99,-91.78 392.99,-91.78 393.32,-96.77 388.5,-92.08 393.66,-101.76 393.66,-101.76"/>
</g>
<!-- Tag -->
<g id="node9" class="node">
<title>Tag</title>
<path fill="none" stroke="black" d="M430.5,-159.5C430.5,-159.5 516.5,-159.5 516.5,-159.5 522.5,-159.5 528.5,-165.5 528.5,-171.5 528.5,-171.5 528.5,-208.5 528.5,-208.5 528.5,-214.5 522.5,-220.5 516.5,-220.5 516.5,-220.5 430.5,-220.5 430.5,-220.5 424.5,-220.5 418.5,-214.5 418.5,-208.5 418.5,-208.5 418.5,-171.5 418.5,-171.5 418.5,-165.5 424.5,-159.5 430.5,-159.5"/>
<text text-anchor="middle" x="473.5" y="-205.3" font-family="Times,serif" font-size="14.00">Tag</text>
<polyline fill="none" stroke="black" points="418.5,-197.5 528.5,-197.5 "/>
<text text-anchor="start" x="426.5" y="-182.3" font-family="Times,serif" font-size="14.00">id :integer</text>
<text text-anchor="start" x="426.5" y="-167.3" font-family="Times,serif" font-size="14.00">title :varchar</text>
</g>
<!-- Gossip&#45;&gt;Tag -->
<g id="edge4" class="edge">
<title>Gossip&#45;&gt;Tag</title>
<path fill="none" stroke="#a7a9b7" d="M450.13,-278.36C454.48,-262.09 458.97,-245.31 462.84,-230.86"/>
<polygon fill="#a7a9b7" stroke="#a7a9b7" points="450.08,-278.54 443.15,-287.03 448.79,-283.37 447.5,-288.2 447.5,-288.2 447.5,-288.2 448.79,-283.37 451.85,-289.36 450.08,-278.54 450.08,-278.54"/>
<polygon fill="#a7a9b7" stroke="#a7a9b7" points="462.95,-230.45 469.88,-221.95 464.24,-225.62 465.53,-220.79 465.53,-220.79 465.53,-220.79 464.24,-225.62 461.18,-219.63 462.95,-230.45 462.95,-230.45"/>
</g>
<!-- Itest -->
<g id="node6" class="node">
<title>Itest</title>
<path fill="none" stroke="black" d="M657.5,-665.5C657.5,-665.5 787.5,-665.5 787.5,-665.5 793.5,-665.5 799.5,-671.5 799.5,-677.5 799.5,-677.5 799.5,-744.5 799.5,-744.5 799.5,-750.5 793.5,-756.5 787.5,-756.5 787.5,-756.5 657.5,-756.5 657.5,-756.5 651.5,-756.5 645.5,-750.5 645.5,-744.5 645.5,-744.5 645.5,-677.5 645.5,-677.5 645.5,-671.5 651.5,-665.5 657.5,-665.5"/>
<text text-anchor="middle" x="722.5" y="-741.3" font-family="Times,serif" font-size="14.00">Itest</text>
<polyline fill="none" stroke="black" points="645.5,-733.5 799.5,-733.5 "/>
<text text-anchor="start" x="653.5" y="-718.3" font-family="Times,serif" font-size="14.00">id :integer</text>
<text text-anchor="start" x="653.5" y="-703.3" font-family="Times,serif" font-size="14.00">user_id :bigint</text>
<text text-anchor="start" x="653.5" y="-688.3" font-family="Times,serif" font-size="14.00">gossip_id :bigint</text>
<text text-anchor="start" x="653.5" y="-673.3" font-family="Times,serif" font-size="14.00">comment_id :bigint</text>
</g>
<!-- PrivateMessage -->
<g id="node8" class="node">
<title>PrivateMessage</title>
<path fill="none" stroke="black" d="M622,-288.5C622,-288.5 767,-288.5 767,-288.5 773,-288.5 779,-294.5 779,-300.5 779,-300.5 779,-397.5 779,-397.5 779,-403.5 773,-409.5 767,-409.5 767,-409.5 622,-409.5 622,-409.5 616,-409.5 610,-403.5 610,-397.5 610,-397.5 610,-300.5 610,-300.5 610,-294.5 616,-288.5 622,-288.5"/>
<text text-anchor="middle" x="694.5" y="-394.3" font-family="Times,serif" font-size="14.00">PrivateMessage</text>
<polyline fill="none" stroke="black" points="610,-386.5 779,-386.5 "/>
<text text-anchor="start" x="618" y="-371.3" font-family="Times,serif" font-size="14.00">id :integer</text>
<text text-anchor="start" x="618" y="-356.3" font-family="Times,serif" font-size="14.00">recipient_id :bigint</text>
<text text-anchor="start" x="618" y="-341.3" font-family="Times,serif" font-size="14.00">sender_id :bigint</text>
<text text-anchor="start" x="618" y="-326.3" font-family="Times,serif" font-size="14.00">content :text</text>
<text text-anchor="start" x="618" y="-311.3" font-family="Times,serif" font-size="14.00">created_at :datetime</text>
<text text-anchor="start" x="618" y="-296.3" font-family="Times,serif" font-size="14.00">updated_at :datetime</text>
</g>
<!-- User&#45;&gt;Comment -->
<g id="edge7" class="edge">
<title>User&#45;&gt;Comment</title>
<path fill="none" stroke="#2b5f37" d="M464.48,-507C420.12,-485.05 369.69,-452.95 337.5,-410 305.04,-366.7 290.43,-306.79 283.86,-260.57"/>
<ellipse fill="none" stroke="#2b5f37" cx="468.23" cy="-508.82" rx="4" ry="4"/>
<polygon fill="#2b5f37" stroke="#2b5f37" points="283.86,-260.54 287,-250.03 283.2,-255.58 282.54,-250.63 282.54,-250.63 282.54,-250.63 283.2,-255.58 278.08,-251.22 283.86,-260.54 283.86,-260.54"/>
</g>
<!-- User&#45;&gt;Gossip -->
<g id="edge6" class="edge">
<title>User&#45;&gt;Gossip</title>
<path fill="none" stroke="#93364d" d="M498.99,-454.47C491.08,-442.23 483.07,-429.83 475.46,-418.05"/>
<ellipse fill="none" stroke="#93364d" cx="501.32" cy="-458.08" rx="4" ry="4"/>
<polygon fill="#93364d" stroke="#93364d" points="475.42,-417.99 473.78,-407.15 472.71,-413.79 470,-409.59 470,-409.59 470,-409.59 472.71,-413.79 466.22,-412.03 475.42,-417.99 475.42,-417.99"/>
</g>
<!-- User&#45;&gt;Like -->
<g id="edge8" class="edge">
<title>User&#45;&gt;Like</title>
<path fill="none" stroke="#600036" d="M562.36,-453.26C567.5,-347.86 569.81,-181.25 537.5,-129 523.32,-106.08 500.29,-89.03 476.61,-76.6"/>
<ellipse fill="none" stroke="#600036" cx="562.16" cy="-457.38" rx="4" ry="4"/>
<polygon fill="#600036" stroke="#600036" points="476.47,-76.53 469.53,-68.03 472,-74.29 467.52,-72.06 467.52,-72.06 467.52,-72.06 472,-74.29 465.51,-76.08 476.47,-76.53 476.47,-76.53"/>
</g>
<!-- User&#45;&gt;PrivateMessage -->
<g id="edge9" class="edge">
<title>User&#45;&gt;PrivateMessage</title>
<path fill="none" stroke="#a2178a" d="M576.61,-453.62C580.47,-444.57 585.05,-435.85 590.5,-428 594.13,-422.77 598.23,-417.74 602.64,-412.94"/>
<ellipse fill="none" stroke="#a2178a" cx="575.02" cy="-457.56" rx="4" ry="4"/>
<polygon fill="#a2178a" stroke="#a2178a" points="602.83,-412.74 613.03,-408.72 606.32,-409.16 609.81,-405.58 609.81,-405.58 609.81,-405.58 606.32,-409.16 606.59,-402.44 602.83,-412.74 602.83,-412.74"/>
<text text-anchor="middle" x="644.5" y="-431.8" font-family="Times,serif" font-size="14.00">sent_messages</text>
</g>
<!-- User&#45;&gt;PrivateMessage -->
<g id="edge10" class="edge">
<title>User&#45;&gt;PrivateMessage</title>
<path fill="none" stroke="#35ecb8" d="M647.94,-498.11C668.2,-483.46 687.04,-465.15 698.5,-443 702.25,-435.75 704.36,-427.75 705.34,-419.57"/>
<ellipse fill="none" stroke="#35ecb8" cx="644.59" cy="-500.45" rx="4" ry="4"/>
<polygon fill="#35ecb8" stroke="#35ecb8" points="705.35,-419.52 710.5,-409.84 705.68,-414.53 706.01,-409.54 706.01,-409.54 706.01,-409.54 705.68,-414.53 701.52,-409.24 705.35,-419.52 705.35,-419.52"/>
<text text-anchor="middle" x="772.5" y="-431.8" font-family="Times,serif" font-size="14.00">received_messages</text>
</g>
</g>
</svg>
