<?xml version="1.0" encoding="UTF-8" standalone="no"?>
<!DOCTYPE svg PUBLIC "-//W3C//DTD SVG 1.1//EN"
 "http://www.w3.org/Graphics/SVG/1.1/DTD/svg11.dtd">
<!-- Generated by graphviz version 2.43.0 (0)
 -->
<!-- Title: models_diagram Pages: 1 -->
<svg width="809pt" height="392pt"
 viewBox="0.00 0.00 808.50 392.00" xmlns="http://www.w3.org/2000/svg" xmlns:xlink="http://www.w3.org/1999/xlink">
<g id="graph0" class="graph" transform="scale(1 1) rotate(0) translate(4 388)">
<title>models_diagram</title>
<polygon fill="transparent" stroke="transparent" points="-4,4 -4,-388 804.5,-388 804.5,4 -4,4"/>
<!-- _diagram_info -->
<g id="node1" class="node">
<title>_diagram_info</title>
<text text-anchor="start" x="8" y="-369.6" font-family="Times,serif" font-size="13.00">Models diagram</text>
<text text-anchor="start" x="8" y="-355.6" font-family="Times,serif" font-size="13.00">Date: Aug 01 2020 &#45; 10:36</text>
<text text-anchor="start" x="8" y="-341.6" font-family="Times,serif" font-size="13.00">Migration version: 20200731090008</text>
<text text-anchor="start" x="8" y="-327.6" font-family="Times,serif" font-size="13.00">Generated by RailRoady 1.5.3</text>
<text text-anchor="start" x="8" y="-313.6" font-family="Times,serif" font-size="13.00">http://railroady.prestonlee.com</text>
</g>
<!-- ApplicationRecord -->
<g id="node2" class="node">
<title>ApplicationRecord</title>
<ellipse fill="none" stroke="black" cx="372.5" cy="-345" rx="95.58" ry="18"/>
<text text-anchor="middle" x="372.5" y="-341.3" font-family="Times,serif" font-size="14.00">ApplicationRecord</text>
</g>
<!-- City -->
<g id="node3" class="node">
<title>City</title>
<ellipse fill="none" stroke="black" cx="515.5" cy="-345" rx="29.8" ry="18"/>
<text text-anchor="middle" x="515.5" y="-341.3" font-family="Times,serif" font-size="14.00">City</text>
</g>
<!-- User -->
<g id="node10" class="node">
<title>User</title>
<ellipse fill="none" stroke="black" cx="515.5" cy="-251" rx="33.29" ry="18"/>
<text text-anchor="middle" x="515.5" y="-247.3" font-family="Times,serif" font-size="14.00">User</text>
</g>
<!-- City&#45;&gt;User -->
<g id="edge1" class="edge">
<title>City&#45;&gt;User</title>
<path fill="none" stroke="#f6ae64" d="M515.5,-318.45C515.5,-306.32 515.5,-291.79 515.5,-279.43"/>
<ellipse fill="none" stroke="#f6ae64" cx="515.5" cy="-322.7" rx="4" ry="4"/>
<polygon fill="#f6ae64" stroke="#f6ae64" points="515.5,-279.23 520,-269.23 515.5,-274.23 515.5,-269.23 515.5,-269.23 515.5,-269.23 515.5,-274.23 511,-269.23 515.5,-279.23 515.5,-279.23"/>
</g>
<!-- Comment -->
<g id="node4" class="node">
<title>Comment</title>
<ellipse fill="none" stroke="black" cx="321.5" cy="-91" rx="55.79" ry="18"/>
<text text-anchor="middle" x="321.5" y="-87.3" font-family="Times,serif" font-size="14.00">Comment</text>
</g>
<!-- Like -->
<g id="node7" class="node">
<title>Like</title>
<ellipse fill="none" stroke="black" cx="405.5" cy="-18" rx="30.59" ry="18"/>
<text text-anchor="middle" x="405.5" y="-14.3" font-family="Times,serif" font-size="14.00">Like</text>
</g>
<!-- Comment&#45;&gt;Like -->
<g id="edge2" class="edge">
<title>Comment&#45;&gt;Like</title>
<path fill="none" stroke="#316d5c" d="M348.46,-67.21C358.92,-58.37 370.81,-48.32 381.02,-39.69"/>
<polygon fill="#316d5c" stroke="#316d5c" points="348.2,-67.43 337.66,-70.45 344.38,-70.66 340.56,-73.89 340.56,-73.89 340.56,-73.89 344.38,-70.66 343.47,-77.33 348.2,-67.43 348.2,-67.43"/>
<polygon fill="#316d5c" stroke="#316d5c" points="381.15,-39.58 391.69,-36.56 384.97,-36.35 388.79,-33.13 388.79,-33.13 388.79,-33.13 384.97,-36.35 385.88,-29.69 381.15,-39.58 381.15,-39.58"/>
</g>
<!-- Gossip -->
<g id="node5" class="node">
<title>Gossip</title>
<ellipse fill="none" stroke="black" cx="435.5" cy="-164" rx="42.49" ry="18"/>
<text text-anchor="middle" x="435.5" y="-160.3" font-family="Times,serif" font-size="14.00">Gossip</text>
</g>
<!-- Gossip&#45;&gt;Comment -->
<g id="edge5" class="edge">
<title>Gossip&#45;&gt;Comment</title>
<path fill="none" stroke="#dab93d" d="M405.63,-144.4C390.03,-134.68 370.89,-122.76 354.81,-112.74"/>
<ellipse fill="none" stroke="#dab93d" cx="409.31" cy="-146.69" rx="4" ry="4"/>
<polygon fill="#dab93d" stroke="#dab93d" points="354.72,-112.69 348.61,-103.58 350.48,-110.05 346.23,-107.4 346.23,-107.4 346.23,-107.4 350.48,-110.05 343.85,-111.22 354.72,-112.69 354.72,-112.69"/>
</g>
<!-- Gossip&#45;&gt;Like -->
<g id="edge3" class="edge">
<title>Gossip&#45;&gt;Like</title>
<path fill="none" stroke="#de2a4f" d="M430.26,-137.84C424.91,-112.17 416.64,-72.48 411.15,-46.12"/>
<ellipse fill="none" stroke="#de2a4f" cx="431.12" cy="-142" rx="4" ry="4"/>
<polygon fill="#de2a4f" stroke="#de2a4f" points="411.09,-45.85 413.46,-35.14 410.07,-40.96 409.05,-36.06 409.05,-36.06 409.05,-36.06 410.07,-40.96 404.65,-36.98 411.09,-45.85 411.09,-45.85"/>
</g>
<!-- Tag -->
<g id="node9" class="node">
<title>Tag</title>
<ellipse fill="none" stroke="black" cx="460.5" cy="-91" rx="27.1" ry="18"/>
<text text-anchor="middle" x="460.5" y="-87.3" font-family="Times,serif" font-size="14.00">Tag</text>
</g>
<!-- Gossip&#45;&gt;Tag -->
<g id="edge4" class="edge">
<title>Gossip&#45;&gt;Tag</title>
<path fill="none" stroke="#ced9b1" d="M444.82,-136.54C446.92,-130.57 449.15,-124.23 451.25,-118.26"/>
<polygon fill="#ced9b1" stroke="#ced9b1" points="444.75,-136.74 437.18,-144.68 443.09,-141.46 441.42,-146.17 441.42,-146.17 441.42,-146.17 443.09,-141.46 445.67,-147.67 444.75,-136.74 444.75,-136.74"/>
<polygon fill="#ced9b1" stroke="#ced9b1" points="451.3,-118.14 458.86,-110.2 452.96,-113.42 454.62,-108.71 454.62,-108.71 454.62,-108.71 452.96,-113.42 450.37,-107.21 451.3,-118.14 451.3,-118.14"/>
</g>
<!-- Itest -->
<g id="node6" class="node">
<title>Itest</title>
<ellipse fill="none" stroke="black" cx="595.5" cy="-345" rx="32.49" ry="18"/>
<text text-anchor="middle" x="595.5" y="-341.3" font-family="Times,serif" font-size="14.00">Itest</text>
</g>
<!-- PrivateMessage -->
<g id="node8" class="node">
<title>PrivateMessage</title>
<ellipse fill="none" stroke="black" cx="654.5" cy="-164" rx="85.29" ry="18"/>
<text text-anchor="middle" x="654.5" y="-160.3" font-family="Times,serif" font-size="14.00">PrivateMessage</text>
</g>
<!-- User&#45;&gt;Comment -->
<g id="edge7" class="edge">
<title>User&#45;&gt;Comment</title>
<path fill="none" stroke="#f29ccf" d="M480.76,-237.37C452.64,-225.95 413.13,-207.08 384.5,-182 363.79,-163.85 346.4,-137.55 335.17,-118.06"/>
<ellipse fill="none" stroke="#f29ccf" cx="484.66" cy="-238.92" rx="4" ry="4"/>
<polygon fill="#f29ccf" stroke="#f29ccf" points="335.05,-117.84 334.1,-106.91 332.61,-113.47 330.17,-109.11 330.17,-109.11 330.17,-109.11 332.61,-113.47 326.24,-111.3 335.05,-117.84 335.05,-117.84"/>
</g>
<!-- User&#45;&gt;Gossip -->
<g id="edge6" class="edge">
<title>User&#45;&gt;Gossip</title>
<path fill="none" stroke="#3a9f2d" d="M495.17,-228.4C483.68,-216.19 469.32,-200.93 457.56,-188.44"/>
<ellipse fill="none" stroke="#3a9f2d" cx="498.09" cy="-231.5" rx="4" ry="4"/>
<polygon fill="#3a9f2d" stroke="#3a9f2d" points="457.48,-188.35 453.9,-177.98 454.05,-184.71 450.62,-181.07 450.62,-181.07 450.62,-181.07 454.05,-184.71 447.35,-184.15 457.48,-188.35 457.48,-188.35"/>
</g>
<!-- User&#45;&gt;Like -->
<g id="edge8" class="edge">
<title>User&#45;&gt;Like</title>
<path fill="none" stroke="#5a963d" d="M519.42,-224.88C523.75,-188.34 526.58,-119.82 496.5,-73 483.78,-53.21 461.02,-39.71 441.45,-31.15"/>
<ellipse fill="none" stroke="#5a963d" cx="518.88" cy="-229.05" rx="4" ry="4"/>
<polygon fill="#5a963d" stroke="#5a963d" points="441.4,-31.14 433.85,-23.18 436.78,-29.24 432.15,-27.35 432.15,-27.35 432.15,-27.35 436.78,-29.24 430.44,-31.51 441.4,-31.14 441.4,-31.14"/>
</g>
<!-- User&#45;&gt;PrivateMessage -->
<g id="edge9" class="edge">
<title>User&#45;&gt;PrivateMessage</title>
<path fill="none" stroke="#10fa84" d="M527.49,-225.87C533.09,-216.68 540.52,-206.8 549.5,-200 560.41,-191.74 573.38,-185.37 586.41,-180.48"/>
<ellipse fill="none" stroke="#10fa84" cx="525.39" cy="-229.55" rx="4" ry="4"/>
<polygon fill="#10fa84" stroke="#10fa84" points="586.45,-180.46 597.37,-181.41 591.17,-178.82 595.89,-177.17 595.89,-177.17 595.89,-177.17 591.17,-178.82 594.4,-172.92 586.45,-180.46 586.45,-180.46"/>
<text text-anchor="middle" x="603.5" y="-203.8" font-family="Times,serif" font-size="14.00">sent_messages</text>
</g>
<!-- User&#45;&gt;PrivateMessage -->
<g id="edge10" class="edge">
<title>User&#45;&gt;PrivateMessage</title>
<path fill="none" stroke="#75f0d2" d="M556.19,-245.53C593.61,-240.48 645.09,-230.84 657.5,-215 662.55,-208.55 663.48,-200.08 662.63,-191.94"/>
<ellipse fill="none" stroke="#75f0d2" cx="551.94" cy="-246.08" rx="4" ry="4"/>
<polygon fill="#75f0d2" stroke="#75f0d2" points="662.61,-191.83 665.22,-181.17 661.7,-186.91 660.79,-181.99 660.79,-181.99 660.79,-181.99 661.7,-186.91 656.37,-182.81 662.61,-191.83 662.61,-191.83"/>
<text text-anchor="middle" x="731.5" y="-203.8" font-family="Times,serif" font-size="14.00">received_messages</text>
</g>
</g>
</svg>
